<svg width="48" height="48" viewBox="0 0 48 48" fill="none" xmlns="http://www.w3.org/2000/svg">
<rect width="48" height="48" rx="24" fill="url(#paint0_linear_5001_1479)"/>
<g clip-path="url(#clip0_5001_1479)">
<path d="M23.6695 38.3519C23.6748 38.2302 23.7033 38.1108 23.7534 38.0006C23.8035 37.8905 23.8741 37.7917 23.9611 37.7101C24.0482 37.6285 24.15 37.5656 24.2606 37.5251C24.3713 37.4847 24.4885 37.4674 24.6056 37.4744C24.7227 37.4813 24.8373 37.5123 24.9428 37.5656C25.0483 37.6188 25.1425 37.6933 25.2201 37.7847C25.2976 37.8761 25.357 37.9825 25.3946 38.0979C25.4323 38.2133 25.4476 38.3352 25.4395 38.4568C25.4235 38.6985 25.3164 38.924 25.1414 39.0843C24.9663 39.2445 24.7375 39.3266 24.5046 39.3128C24.2717 39.299 24.0533 39.1904 23.897 39.0105C23.7407 38.8306 23.6589 38.594 23.6695 38.3519ZM16.4093 37.3557C16.5107 37.1952 16.6693 37.0832 16.8503 37.0442C17.0313 37.0052 17.2198 37.0425 17.3743 37.1478C17.5288 37.2532 17.6367 37.418 17.6742 37.6059C17.7117 37.7939 17.6758 37.9896 17.5744 38.1501C17.5242 38.2296 17.4594 38.298 17.3837 38.3514C17.308 38.4049 17.2229 38.4423 17.1333 38.4616C17.0437 38.4809 16.9513 38.4817 16.8614 38.4639C16.7715 38.4461 16.6858 38.4101 16.6093 38.3579C16.5328 38.3057 16.467 38.2384 16.4155 38.1598C16.3641 38.0812 16.328 37.9929 16.3094 37.8998C16.2909 37.8067 16.2901 37.7107 16.3072 37.6174C16.3244 37.524 16.359 37.4352 16.4093 37.3557ZM31.9815 37.0719C32.0632 37.029 32.1522 37.0032 32.2435 36.9961C32.3348 36.9889 32.4265 37.0006 32.5135 37.0303C32.6004 37.0601 32.6808 37.1073 32.7501 37.1694C32.8195 37.2315 32.8763 37.3072 32.9174 37.3922C32.9795 37.52 33.0037 37.6641 32.9869 37.8062C32.9702 37.9483 32.9132 38.082 32.8233 38.1905C32.7333 38.299 32.6144 38.3773 32.4816 38.4156C32.3488 38.4539 32.208 38.4504 32.0771 38.4056C31.9462 38.3608 31.831 38.2767 31.7462 38.1639C31.6613 38.0511 31.6105 37.9147 31.6003 37.772C31.59 37.6292 31.6208 37.4865 31.6887 37.3619C31.7565 37.2373 31.8584 37.1363 31.9815 37.0719ZM18.0923 33.525C18.2486 33.2771 18.4932 33.1038 18.7725 33.0432C19.0518 32.9827 19.3428 33.0398 19.5815 33.202C19.8202 33.3646 19.987 33.6189 20.0453 33.9092C20.1036 34.1994 20.0485 34.5018 19.8923 34.7499C19.735 34.9958 19.4905 35.1671 19.2121 35.2264C18.9337 35.2857 18.644 35.2282 18.4062 35.0664C18.1685 34.9047 18.0021 34.6518 17.9432 34.363C17.8844 34.0742 17.938 33.7729 18.0923 33.525ZM29.7954 33.1127C29.9213 33.046 30.0586 33.0057 30.1995 32.9942C30.3404 32.9827 30.482 33.0002 30.6164 33.0456C30.7508 33.091 30.8752 33.1635 30.9826 33.259C31.09 33.3544 31.1782 33.4709 31.2421 33.6017C31.3384 33.7976 31.3769 34.0185 31.353 34.2369C31.329 34.4554 31.2436 34.6617 31.1074 34.83C30.9712 34.9983 30.7903 35.1212 30.5873 35.1834C30.3842 35.2455 30.1681 35.2442 29.9657 35.1795C29.7634 35.1148 29.584 34.9896 29.4498 34.8196C29.3156 34.6495 29.2326 34.4422 29.2112 34.2235C29.1897 34.0047 29.2309 33.7843 29.3294 33.5897C29.4279 33.3951 29.5794 33.235 29.765 33.1293L29.7954 33.1127ZM23.3981 32.43C23.5078 32.1958 23.6819 32.0006 23.8984 31.8692C24.1149 31.7378 24.3641 31.6761 24.6144 31.692C25.3109 31.7352 25.8423 32.356 25.8021 33.0797C25.7915 33.2741 25.7395 33.4636 25.6498 33.6346C25.5601 33.8056 25.435 33.9538 25.2835 34.0685C25.132 34.1832 24.9579 34.2615 24.7737 34.2978C24.5895 34.3341 24.3999 34.3275 24.2184 34.2785C24.037 34.2295 23.8683 34.1392 23.7245 34.0143C23.5808 33.8893 23.4655 33.7328 23.387 33.556C23.3085 33.3791 23.2688 33.1864 23.2707 32.9917C23.2727 32.797 23.3162 32.6052 23.3981 32.43ZM12.1944 30.3934C12.4037 30.2852 12.6457 30.2673 12.8677 30.3435C13.0897 30.4198 13.2737 30.5841 13.3797 30.8006C13.4856 31.0171 13.5049 31.2683 13.4334 31.4995C13.3618 31.7307 13.2052 31.9231 12.9977 32.035C12.7901 32.1468 12.5484 32.169 12.3252 32.0966C12.102 32.0243 11.9154 31.8633 11.806 31.6486C11.6965 31.434 11.6732 31.1832 11.7409 30.9508C11.8087 30.7184 11.9622 30.5232 12.1679 30.4077L12.1944 30.3934ZM35.9249 30.6553C35.9881 30.5528 36.0703 30.4644 36.1666 30.3952C36.263 30.3259 36.3716 30.2772 36.4861 30.2518C36.6007 30.2264 36.719 30.2248 36.8342 30.2472C36.9493 30.2696 37.0591 30.3154 37.1571 30.3821C37.2551 30.4488 37.3394 30.535 37.4051 30.6358C37.4708 30.7365 37.5166 30.8498 37.54 30.969C37.5633 31.0883 37.5636 31.2112 37.5409 31.3305C37.5182 31.4499 37.473 31.5635 37.4078 31.6646C37.2778 31.8661 37.0765 32.0063 36.8476 32.0546C36.6187 32.1028 36.3807 32.0553 36.1853 31.9224C35.9899 31.7894 35.853 31.5817 35.8042 31.3444C35.7555 31.1072 35.7988 30.8595 35.9249 30.6553ZM21.0614 26.5719C21.4833 26.3354 21.969 26.2517 22.4418 26.3342C22.9146 26.4167 23.3474 26.6607 23.6717 27.0274C23.9959 27.3942 24.1932 27.8628 24.2321 28.359C24.2711 28.8553 24.1496 29.3509 23.8868 29.7674C23.6913 30.0789 23.4239 30.3347 23.1088 30.5113C22.7938 30.6879 22.4412 30.7798 22.0831 30.7785C21.6038 30.7781 21.1382 30.6117 20.7602 30.3055C20.3821 29.9994 20.1132 29.571 19.9959 29.0882C19.8787 28.6055 19.9198 28.0959 20.1128 27.6401C20.3057 27.1844 20.6396 26.8085 21.0614 26.5719ZM26.5041 26.4037C26.9929 26.2403 27.5218 26.2635 27.9956 26.4693C28.4693 26.6751 28.8567 27.0498 29.0879 27.526C29.6196 28.6283 29.1934 29.9698 28.1341 30.5266C27.8334 30.685 27.5013 30.7688 27.1641 30.7712C26.6507 30.7712 26.1541 30.5807 25.7639 30.234C25.3737 29.8874 25.1156 29.4074 25.0359 28.8806C24.9563 28.3537 25.0605 27.8147 25.3297 27.3606C25.5989 26.9064 26.0154 26.5671 26.5041 26.4037ZM16.13 27.6461C16.2522 27.4986 16.4044 27.3811 16.5756 27.3021C16.7468 27.2231 16.9327 27.1844 17.12 27.189C17.3073 27.1936 17.4913 27.2413 17.6587 27.3286C17.8261 27.4159 17.9728 27.5407 18.0882 27.694C18.2036 27.8473 18.2848 28.0253 18.3259 28.2151C18.3671 28.4049 18.3673 28.6019 18.3263 28.7918C18.2854 28.9816 18.2044 29.1597 18.0893 29.3132C17.9741 29.4666 17.8276 29.5917 17.6603 29.6792C17.3986 29.8162 17.0994 29.8547 16.8134 29.7882C16.5275 29.7217 16.2726 29.5544 16.0922 29.3146C15.9117 29.0749 15.8169 28.7776 15.8238 28.4734C15.8307 28.1691 15.9389 27.8768 16.13 27.6461ZM31.0986 27.7474C31.4825 27.1399 32.2679 26.9708 32.8526 27.3696C33.4364 27.7692 33.5989 28.5837 33.2164 29.1915C32.8325 29.7988 32.0471 29.968 31.4624 29.5693C30.8775 29.1704 30.7146 28.3549 31.0986 27.7474ZM17.3778 23.8555C17.445 22.6387 18.4375 21.7017 19.6103 21.7479C20.7828 21.7941 21.704 22.8065 21.6825 24.0251C21.6613 25.2299 20.7258 26.1982 19.5704 26.221L19.5309 26.2214H19.4131C18.2368 26.15 17.3353 25.1129 17.3818 23.8949L17.3836 23.8542L17.3778 23.8555ZM27.5415 23.8304C27.6098 22.5963 28.6284 21.6534 29.8165 21.7243C30.0988 21.7393 30.3753 21.8126 30.63 21.9398C30.8846 22.067 31.1124 22.2456 31.2999 22.4652C31.5743 22.7843 31.7549 23.1785 31.8203 23.6009C31.8856 24.0234 31.833 24.4564 31.6686 24.8488C31.5042 25.2411 31.235 25.5763 30.8928 25.8145C30.5506 26.0527 30.1498 26.1841 29.7379 26.193L29.694 26.1935H29.5691C28.381 26.1226 27.4731 25.0646 27.5414 23.8306L27.5415 23.8304ZM12.2519 23.9321C12.2681 23.6363 12.3967 23.3592 12.6096 23.1618C12.8224 22.9645 13.102 22.863 13.3869 22.8798C13.6719 22.8968 13.9387 23.0306 14.1287 23.2519C14.3188 23.4731 14.4165 23.7636 14.4004 24.0596C14.3841 24.3555 14.2553 24.6326 14.0424 24.8299C13.8294 25.0272 13.5497 25.1285 13.2648 25.1116C12.9799 25.0947 12.7131 24.961 12.5231 24.7398C12.3332 24.5186 12.2356 24.2281 12.2519 23.9321ZM34.8293 23.8815C34.847 23.5867 34.9763 23.3112 35.1889 23.1152C35.4016 22.9191 35.6804 22.8185 35.9643 22.8352C36.2482 22.852 36.5141 22.9848 36.704 23.2046C36.8939 23.4244 36.9924 23.7134 36.9778 24.0083C36.9614 24.3044 36.8325 24.5815 36.6195 24.7789C36.4065 24.9763 36.1268 25.0778 35.8418 25.0611C35.5569 25.0441 35.2903 24.9103 35.1004 24.6891C34.9105 24.4679 34.813 24.1774 34.8293 23.8815ZM9.32402 23.286L9.35002 23.287C9.44139 23.2922 9.53087 23.316 9.61334 23.3572C9.69581 23.3984 9.76963 23.4561 9.83056 23.527C9.89149 23.5979 9.93834 23.6806 9.96841 23.7703C9.99847 23.8601 10.0112 23.9552 10.0058 24.05C9.99792 24.1915 9.9502 24.3275 9.86853 24.441C9.78686 24.5545 9.67484 24.6406 9.54643 24.6885C9.41802 24.7365 9.27888 24.7441 9.14631 24.7105C9.01375 24.6769 8.89362 24.6036 8.80087 24.4997C8.70812 24.3957 8.64684 24.2658 8.62467 24.1259C8.60249 23.9861 8.6204 23.8426 8.67615 23.7132C8.73191 23.5839 8.82305 23.4744 8.93824 23.3984C9.05344 23.3225 9.18759 23.2834 9.32402 23.286ZM39.9295 23.2113L39.9585 23.2125C40.1429 23.2239 40.3155 23.3106 40.4384 23.4539C40.5613 23.5971 40.6246 23.7851 40.6143 23.9767C40.6064 24.1183 40.5587 24.2544 40.4769 24.3681C40.3952 24.4818 40.2831 24.568 40.1546 24.616C40.0261 24.6641 39.8868 24.6719 39.7541 24.6384C39.6214 24.6049 39.501 24.5317 39.4081 24.4277C39.3151 24.3238 39.2536 24.1938 39.2311 24.0539C39.2087 23.9139 39.2264 23.7702 39.2819 23.6406C39.3375 23.511 39.4285 23.4012 39.5436 23.3249C39.6588 23.2486 39.793 23.2091 39.9295 23.2113ZM22.0644 17.1733C22.4631 17.1713 22.8544 17.2847 23.1945 17.5006C23.5347 17.7166 23.8103 18.0266 23.9904 18.396C24.1568 18.7374 24.2362 19.1173 24.221 19.4996C24.2058 19.8819 24.0965 20.2538 23.9036 20.5797C23.7106 20.9057 23.4405 21.1748 23.1189 21.3615C22.7973 21.5482 22.435 21.6461 22.0666 21.646C21.6671 21.6473 21.2751 21.5327 20.9349 21.3152C20.5946 21.0976 20.3196 20.7858 20.1408 20.4147C19.9763 20.0737 19.8984 19.6946 19.9146 19.3136C19.9307 18.9325 20.0404 18.5621 20.2331 18.2374C20.4258 17.9126 20.6951 17.6445 21.0156 17.4582C21.3361 17.272 21.6971 17.1739 22.0644 17.1733ZM27.1465 17.1575C27.6259 17.1581 28.0913 17.3248 28.4692 17.6311C28.8471 17.9374 29.1158 18.3659 29.2328 18.8487C29.3499 19.3314 29.3086 19.841 29.1154 20.2966C28.9223 20.7523 28.5883 21.128 28.1665 21.3644C27.7446 21.6007 27.2589 21.6842 26.7862 21.6016C26.3135 21.519 25.8808 21.275 25.5566 20.9082C25.2325 20.5415 25.0353 20.0729 24.9964 19.5767C24.9575 19.0805 25.079 18.585 25.3418 18.1686C25.5382 17.8577 25.806 17.6025 26.121 17.426C26.4361 17.2495 26.7885 17.1572 27.1465 17.1575ZM16.0121 18.7482C16.3958 18.1406 17.1809 17.971 17.7659 18.3694C18.3509 18.7677 18.5143 19.5833 18.1309 20.1909C17.7473 20.7985 16.9621 20.9683 16.3771 20.57C16.2379 20.4754 16.1179 20.3532 16.0242 20.2104C15.9304 20.0676 15.8647 19.907 15.8308 19.7377C15.7969 19.5685 15.7955 19.394 15.8266 19.2242C15.8577 19.0544 15.9208 18.8927 16.0121 18.7482ZM31.5706 18.2603C31.7192 18.1824 31.8811 18.1357 32.047 18.1229C32.213 18.11 32.3797 18.1313 32.5377 18.1855C32.6958 18.2396 32.8419 18.3256 32.9679 18.4386C33.0939 18.5515 33.1972 18.6891 33.2719 18.8435C33.5865 19.4925 33.335 20.2836 32.7103 20.6105C32.0854 20.9373 31.3238 20.6761 31.009 20.0272C30.6944 19.3782 30.9459 18.5871 31.5706 18.2602V18.2603ZM11.8223 16.2758C11.9512 16.0716 12.1529 15.9289 12.3831 15.8792C12.4971 15.8546 12.6146 15.8535 12.729 15.876C12.8434 15.8986 12.9523 15.9443 13.0497 16.0106C13.1471 16.0769 13.2309 16.1625 13.2964 16.2624C13.3619 16.3624 13.4079 16.4747 13.4316 16.5931C13.4553 16.7115 13.4563 16.8336 13.4346 16.9524C13.4129 17.0712 13.3688 17.1843 13.305 17.2855C13.1761 17.4897 12.9744 17.6324 12.7442 17.6821C12.514 17.7318 12.2742 17.6845 12.0776 17.5506C11.881 17.4167 11.7436 17.2072 11.6957 16.9681C11.6478 16.7291 11.6934 16.48 11.8223 16.2758ZM36.2363 15.9032C36.4458 15.7967 36.6874 15.7803 36.9085 15.8575C37.1296 15.9348 37.3125 16.0994 37.4175 16.3158C37.5225 16.5322 37.5412 16.7828 37.4694 17.0134C37.3977 17.2439 37.2413 17.4358 37.0343 17.5475C36.8241 17.6572 36.5806 17.6759 36.3572 17.5993C36.1338 17.5227 35.9488 17.3572 35.8429 17.139C35.7373 16.9209 35.7195 16.6682 35.7932 16.4365C35.867 16.2047 36.0264 16.0128 36.2363 15.9031V15.9032ZM23.3299 14.8599C23.3699 14.1348 23.9684 13.5806 24.6666 13.6218C25.3648 13.6631 25.8986 14.2844 25.8591 15.0097C25.8198 15.7348 25.2219 16.2896 24.5236 16.2489C23.8248 16.2075 23.2904 15.5858 23.3299 14.8599ZM18.4644 12.8311C18.5906 12.765 18.7281 12.7254 18.869 12.7146C19.0099 12.7037 19.1515 12.7218 19.2857 12.7678C19.4199 12.8138 19.544 12.8868 19.6511 12.9826C19.7581 13.0784 19.8459 13.1952 19.9095 13.3262C19.9731 13.4573 20.0112 13.6001 20.0217 13.7464C20.0321 13.8928 20.0147 14.0399 19.9704 14.1793C19.9262 14.3186 19.8559 14.4476 19.7636 14.5588C19.6714 14.6699 19.559 14.7611 19.4328 14.8272C19.1779 14.9605 18.8825 14.9833 18.6115 14.8904C18.3405 14.7976 18.1161 14.5967 17.9876 14.332C17.8592 14.0673 17.8373 13.7605 17.9267 13.479C18.0161 13.1975 18.2095 12.9644 18.4644 12.8311ZM29.3339 13.1897C29.4504 13.0045 29.6172 12.8594 29.8132 12.7727C30.0091 12.6859 30.2254 12.6615 30.4347 12.7024C30.644 12.7433 30.8369 12.8478 30.9891 13.0026C31.1413 13.1574 31.2458 13.3555 31.2896 13.572C31.3333 13.7885 31.3143 14.0136 31.2349 14.2189C31.1555 14.4241 31.0193 14.6003 30.8435 14.7252C30.6677 14.8501 30.4602 14.9181 30.2473 14.9205C30.0343 14.9229 29.8254 14.8597 29.647 14.7389C29.5283 14.6587 29.4261 14.5549 29.3461 14.4336C29.2661 14.3123 29.2099 14.1757 29.1808 14.0318C29.1517 13.8879 29.1503 13.7394 29.1766 13.5949C29.2028 13.4504 29.2563 13.3127 29.3339 13.1897ZM16.6149 9.57758C16.7795 9.492 16.9699 9.4775 17.1447 9.53725C17.3196 9.59699 17.4645 9.72614 17.548 9.89649C17.6315 10.0668 17.6467 10.2646 17.5903 10.4465C17.5339 10.6285 17.4105 10.7799 17.247 10.8677C17.165 10.9112 17.0755 10.9375 16.9837 10.945C16.8918 10.9524 16.7995 10.9409 16.7119 10.9112C16.6244 10.8814 16.5434 10.8339 16.4736 10.7715C16.4038 10.7091 16.3466 10.6329 16.3053 10.5474C16.2228 10.3761 16.2092 10.1778 16.2672 9.99605C16.3252 9.81428 16.4503 9.6638 16.6149 9.57758ZM31.6541 9.7905C31.7042 9.71093 31.7689 9.64238 31.8445 9.58877C31.9201 9.53516 32.0051 9.49754 32.0946 9.47805C32.1842 9.45856 32.2766 9.45759 32.3666 9.47519C32.4565 9.49279 32.5422 9.52862 32.6188 9.58063C32.6954 9.63264 32.7614 9.69981 32.8131 9.77831C32.8647 9.85681 32.9009 9.9451 32.9197 10.0381C32.9384 10.1312 32.9394 10.2271 32.9224 10.3206C32.9055 10.414 32.871 10.503 32.8209 10.5826C32.7198 10.7433 32.5613 10.8557 32.3804 10.895C32.1995 10.9344 32.011 10.8975 31.8563 10.7925C31.7016 10.6875 31.5933 10.5229 31.5554 10.335C31.5175 10.1472 31.553 9.95119 31.6541 9.7905ZM24.2909 8.66618C24.4012 8.62441 24.5184 8.60581 24.6357 8.61146C24.753 8.61712 24.868 8.64691 24.9741 8.69911C25.0802 8.75132 25.1753 8.8249 25.2538 8.91557C25.3323 9.00625 25.3927 9.11221 25.4314 9.22732C25.4702 9.34243 25.4865 9.46439 25.4795 9.58612C25.4725 9.70785 25.4423 9.82691 25.3906 9.93641C25.339 10.0459 25.2669 10.1437 25.1785 10.224C25.0902 10.3043 24.9874 10.3656 24.876 10.4043C24.655 10.4812 24.4137 10.4645 24.2044 10.358C23.9952 10.2515 23.8347 10.0636 23.7578 9.8351C23.6808 9.60659 23.6936 9.35581 23.7934 9.13704C23.8932 8.91827 24.0719 8.74911 24.2909 8.66618Z" fill="black"/>
</g>
<defs>
<linearGradient id="paint0_linear_5001_1479" x1="0" y1="0" x2="50.4462" y2="2.72566" gradientUnits="userSpaceOnUse">
<stop stop-color="white"/>
<stop offset="1" stop-color="#FFC4B7"/>
</linearGradient>
<clipPath id="clip0_5001_1479">
<rect width="32" height="30.7692" fill="white" transform="translate(8.61536 8.61536)"/>
</clipPath>
</defs>
</svg>
