<svg width="48" height="48" viewBox="0 0 48 48" fill="none" xmlns="http://www.w3.org/2000/svg">
<rect width="48" height="48" rx="24" fill="url(#paint0_linear_5001_362)"/>
<path d="M26.7436 27.084L25.4421 30.5078C25.4016 30.6045 25.4016 30.7125 25.4421 30.8092L27.6737 36.7059L30.2678 35.271L27.16 27.084C27.1435 27.0436 27.1149 27.0091 27.0777 26.9847C27.0406 26.9603 26.9967 26.9472 26.9518 26.9472C26.9069 26.9472 26.863 26.9603 26.8259 26.9847C26.7887 27.0091 26.76 27.0436 26.7436 27.084ZM29.3464 21.3162C29.3306 21.2752 29.3022 21.2398 29.265 21.2148C29.2278 21.1898 29.1835 21.1765 29.1382 21.1765C29.0929 21.1765 29.0486 21.1898 29.0114 21.2148C28.9741 21.2398 28.9457 21.2752 28.93 21.3162L27.6285 24.7383C27.588 24.835 27.588 24.9431 27.6285 25.0397L31.2951 34.6968L33.8823 33.2619L29.3464 21.3078V21.3162Z" fill="black"/>
<path d="M23.9999 10.2039C24.0782 10.2039 24.1516 10.224 24.2202 10.2643L36.1328 17.0366C36.2003 17.0737 36.2563 17.1278 36.2951 17.1933C36.3338 17.2588 36.3539 17.3333 36.3531 17.409V30.5831C36.3535 30.6585 36.3333 30.7325 36.2945 30.7976C36.2558 30.8628 36.2 30.9166 36.1328 30.9535L24.2202 37.752C24.1529 37.7886 24.077 37.8079 23.9999 37.8079C23.9228 37.8079 23.847 37.7886 23.7796 37.752L11.8671 30.9656C11.7993 30.9283 11.7431 30.8739 11.7043 30.808C11.6655 30.7421 11.6457 30.6672 11.6468 30.5912V17.409C11.6468 17.252 11.7353 17.1151 11.8671 17.0366L23.7796 10.2643C23.8449 10.2214 23.9213 10.1976 23.9999 10.1959V10.2039ZM23.9999 8.47058C23.5861 8.47058 23.162 8.5813 22.7914 8.78866L11.0909 15.3717C10.7243 15.5777 10.4196 15.8744 10.2075 16.232C9.99533 16.5897 9.88319 16.9956 9.88232 17.409V30.5831C9.88232 31.4206 10.3415 32.2057 11.0909 32.6285L22.7914 39.2115C23.1586 39.4197 23.5755 39.5294 23.9999 39.5294C24.4244 39.5294 24.8413 39.4197 25.2085 39.2115L36.909 32.6285C37.2782 32.4234 37.5849 32.1258 37.7973 31.7662C38.0097 31.4067 38.1203 30.9983 38.1176 30.5831V17.409C38.1176 16.5715 37.6584 15.7864 36.909 15.3717L25.2085 8.78866C24.8402 8.58297 24.424 8.47342 23.9999 8.47058Z" fill="black"/>
<path d="M23.1951 16.9412H20.4452C20.3442 16.9433 20.2462 16.9752 20.1646 17.0325C20.0829 17.0898 20.0215 17.1699 19.9885 17.2618L14.1177 32.9131L16.9475 34.5071L23.4234 17.271C23.4375 17.234 23.442 17.1943 23.4368 17.1553C23.4316 17.1162 23.4167 17.079 23.3934 17.0466C23.37 17.0143 23.339 16.9878 23.3028 16.9695C23.2666 16.9511 23.2264 16.9414 23.1855 16.9412H23.1951ZM27.9906 16.9412H25.2503C25.1502 16.9428 25.0529 16.9736 24.9714 17.0295C24.8898 17.0854 24.8278 17.1639 24.7936 17.2545L18.0721 35.1118L20.9114 36.7059L28.219 17.2636C28.2405 17.2095 28.2408 17.1497 28.2197 17.0954C28.1987 17.0411 28.1579 16.996 28.1048 16.9686C28.0696 16.9508 28.0304 16.9413 27.9906 16.9412Z" fill="black"/>
<defs>
<linearGradient id="paint0_linear_5001_362" x1="0" y1="0" x2="50.4462" y2="2.72566" gradientUnits="userSpaceOnUse">
<stop stop-color="white"/>
<stop offset="1" stop-color="#FFC4B7"/>
</linearGradient>
</defs>
</svg>
