<svg width="48" height="48" viewBox="0 0 48 48" fill="none" xmlns="http://www.w3.org/2000/svg">
<rect width="48" height="48" rx="24" fill="url(#paint0_linear_5001_7)"/>
<path d="M17.3602 35.6667H12.8749C11.9336 35.6667 11.4669 35.6667 11.1829 35.4907C11.033 35.3951 10.908 35.2652 10.8183 35.1117C10.7286 34.9582 10.6767 34.7856 10.6669 34.6081C10.6496 34.2747 10.8829 33.8747 11.3496 33.0654L22.4162 13.8334C22.8909 13.0174 23.1323 12.6094 23.4323 12.4601C23.5922 12.3782 23.7693 12.3354 23.9489 12.3354C24.1286 12.3354 24.3057 12.3782 24.4656 12.4601C24.7656 12.6094 24.9989 13.0174 25.4656 13.8334L27.7482 17.7507L27.7576 17.7667C28.1309 18.3214 28.4296 18.9241 28.6402 19.5587C28.7672 20.0674 28.7672 20.5994 28.6402 21.1081C28.4296 21.7481 28.1336 22.3574 27.7576 22.9174L21.9402 33.0494L21.9242 33.0827C21.6256 33.6881 21.2442 34.2494 20.7909 34.7494C20.4001 35.1161 19.9295 35.3872 19.4162 35.5414C18.9402 35.6654 18.4162 35.6654 17.3576 35.6654M28.6803 35.6654H35.0963C36.0563 35.6654 36.5296 35.6654 36.8136 35.4814C36.9637 35.3857 37.0887 35.2555 37.1785 35.1018C37.2682 34.9481 37.32 34.7752 37.3296 34.5974C37.3469 34.2734 37.1216 33.8907 36.6722 33.1307L36.6216 33.0481L33.4056 27.6321L33.3722 27.5654C32.9216 26.8147 32.6883 26.4321 32.3976 26.2814C32.2389 26.1995 32.0628 26.1568 31.8843 26.1568C31.7057 26.1568 31.5296 26.1995 31.3709 26.2814C31.0722 26.4321 30.8376 26.8321 30.3709 27.6321L27.1549 33.0561V33.0734C26.6802 33.8734 26.4482 34.2734 26.4642 34.5974C26.4734 34.7765 26.525 34.9509 26.6147 35.1062C26.7044 35.2615 26.8297 35.3933 26.9802 35.4907C27.2562 35.6641 27.7309 35.6641 28.6803 35.6641" fill="black"/>
<defs>
<linearGradient id="paint0_linear_5001_7" x1="0" y1="0" x2="50.4462" y2="2.72566" gradientUnits="userSpaceOnUse">
<stop stop-color="white"/>
<stop offset="1" stop-color="#FFC4B7"/>
</linearGradient>
</defs>
</svg>
