<svg width="48" height="48" viewBox="0 0 48 48" fill="none" xmlns="http://www.w3.org/2000/svg">
<rect width="48" height="48" rx="24" fill="white"/>
<rect width="48" height="48" rx="24" fill="url(#paint0_linear_5001_845)"/>
<path d="M29.3947 26.2416L32.5657 29.4133L23.9872 38L15.4087 29.4144L18.5785 26.2416L23.9872 31.6834L29.3947 26.2416ZM34.8045 20.8277L38 23.9994L34.8325 27.1711L31.6627 23.9994L34.8045 20.8277ZM23.9872 20.8277L27.1558 23.9714L23.986 27.1443L20.8173 23.9994L23.9872 20.8277ZM13.1687 20.8277L16.3117 23.9994L13.171 27.1431L10 23.9994L13.1687 20.8277ZM23.9883 10L32.5633 18.5575L29.3935 21.7281L23.9883 16.3154L18.5797 21.7573L15.4098 18.5856L23.9883 10Z" fill="black"/>
<defs>
<linearGradient id="paint0_linear_5001_845" x1="0" y1="0" x2="50.4462" y2="2.72566" gradientUnits="userSpaceOnUse">
<stop stop-color="white"/>
<stop offset="1" stop-color="#FFC4B7"/>
</linearGradient>
</defs>
</svg>
