<svg width="48" height="48" viewBox="0 0 48 48" fill="none" xmlns="http://www.w3.org/2000/svg">
<rect width="48" height="48" rx="24" fill="url(#paint0_linear_5001_797)"/>
<path fill-rule="evenodd" clip-rule="evenodd" d="M21.556 13.1981C21.3239 11.2774 19.5294 9.94357 17.6234 10.2749C15.7174 10.6063 14.4784 12.4675 14.9081 14.3538L16.1696 19.8906C13.4253 21.5138 11.5311 23.9498 11.0913 26.7322C11.872 31.5303 17.164 35.5271 24.0201 35.5271C31.3838 35.5271 36.9434 30.9164 37.0469 25.6544C36.2937 23.1642 34.3564 21.0252 31.7179 19.61L32.9163 14.3537C33.3463 12.4675 32.1074 10.6063 30.2015 10.2749C28.2955 9.94359 26.5012 11.2775 26.2694 13.1981L25.7067 17.8601C25.2099 17.8163 24.7048 17.7938 24.1928 17.7938C23.4898 17.7938 22.7996 17.8362 22.1263 17.9179L21.556 13.1981ZM37.3254 29.007C36.6568 34.1483 31.0323 38.1622 24.1928 38.1622C17.8687 38.1622 12.5834 34.7306 11.2941 30.1491C13.5246 33.9158 18.3842 36.5271 24.0201 36.5271C30.2096 36.5271 35.4628 33.3776 37.3254 29.007ZM26.873 25.9727C26.873 26.7498 27.428 27.3797 28.1125 27.3797C28.7971 27.3797 29.3521 26.7498 29.3521 25.9727C29.3521 25.1956 28.7971 24.5657 28.1125 24.5657C27.428 24.5657 26.873 25.1956 26.873 25.9727ZM20.3403 27.3797C19.6557 27.3797 19.1007 26.7498 19.1007 25.9727C19.1007 25.1956 19.6557 24.5657 20.3403 24.5657C21.0248 24.5657 21.5798 25.1956 21.5798 25.9727C21.5798 26.7498 21.0248 27.3797 20.3403 27.3797Z" fill="black"/>
<defs>
<linearGradient id="paint0_linear_5001_797" x1="0" y1="0" x2="50.4462" y2="2.72566" gradientUnits="userSpaceOnUse">
<stop stop-color="white"/>
<stop offset="1" stop-color="#FFC4B7"/>
</linearGradient>
</defs>
</svg>
