<svg width="48" height="48" viewBox="0 0 48 48" fill="none" xmlns="http://www.w3.org/2000/svg">
<rect width="48" height="48" rx="24" fill="url(#paint0_linear_5001_1076)"/>
<path fill-rule="evenodd" clip-rule="evenodd" d="M14.25 21.75V14.1225C13.7488 13.9462 13.3261 13.5981 13.0568 13.14C12.7876 12.6819 12.6892 12.1433 12.779 11.6196C12.8689 11.0959 13.1411 10.6209 13.5476 10.2787C13.9541 9.9365 14.4686 9.74921 15 9.75H24C27.7793 9.75 31.4039 11.2513 34.0763 13.9237C36.7487 16.5961 38.25 20.2207 38.25 24C38.25 27.7793 36.7487 31.4039 34.0763 34.0763C31.4039 36.7487 27.7793 38.25 24 38.25H15C14.4686 38.2508 13.9541 38.0635 13.5476 37.7213C13.1411 37.3791 12.8689 36.9041 12.779 36.3804C12.6892 35.8567 12.7876 35.3181 13.0568 34.86C13.3261 34.4019 13.7488 34.0538 14.25 33.8775V26.25H12C11.4033 26.25 10.831 26.013 10.409 25.591C9.98705 25.169 9.75 24.5967 9.75 24C9.75 23.4033 9.98705 22.831 10.409 22.409C10.831 21.9871 11.4033 21.75 12 21.75H14.25ZM18.75 26.25V33.75H24C26.5859 33.75 29.0658 32.7228 30.8943 30.8943C32.7228 29.0658 33.75 26.5859 33.75 24C33.75 21.4141 32.7228 18.9342 30.8943 17.1057C29.0658 15.2772 26.5859 14.25 24 14.25H18.75V21.75H25.5C26.0967 21.75 26.669 21.9871 27.091 22.409C27.5129 22.831 27.75 23.4033 27.75 24C27.75 24.5967 27.5129 25.169 27.091 25.591C26.669 26.013 26.0967 26.25 25.5 26.25H18.75Z" fill="black"/>
<defs>
<linearGradient id="paint0_linear_5001_1076" x1="0" y1="0" x2="50.4462" y2="2.72566" gradientUnits="userSpaceOnUse">
<stop stop-color="white"/>
<stop offset="1" stop-color="#FFC4B7"/>
</linearGradient>
</defs>
</svg>
