<svg width="48" height="48" viewBox="0 0 48 48" fill="none" xmlns="http://www.w3.org/2000/svg">
<rect width="48" height="48" rx="24" fill="url(#paint0_linear_3331_1291)"/>
<path fill-rule="evenodd" clip-rule="evenodd" d="M11.502 30.9088C12.5174 31.6349 13.8193 31.9979 15.4077 31.9979C17.332 31.9979 18.8681 31.5639 20.016 30.6961C21.1639 29.8133 21.9721 28.4844 22.4406 26.7095C22.7205 25.6214 22.9608 24.5006 23.1615 23.3472C23.2287 22.9319 23.2623 22.588 23.2623 22.3155C23.2623 21.4085 23.0285 20.6311 22.5609 19.9835C22.0934 19.3219 21.4523 18.8291 20.6375 18.5053C19.8228 18.1694 18.9012 18.0009 17.8728 18C14.0932 18 11.7494 19.7824 10.8413 23.3472C10.5634 24.461 10.316 25.5822 10.0994 26.7095C10.0399 27.0564 10.0067 27.4074 10 27.7593C10 29.1208 10.5007 30.1707 11.502 30.9088ZM18.7351 26.5947C18.3516 28.0827 17.2933 29.0527 15.6904 29.0527C14.1044 29.0527 13.5626 27.9791 13.8482 26.5947C14.047 25.5228 14.2875 24.4591 14.5691 23.406C14.9835 21.7976 15.955 20.948 17.6138 20.948C19.1929 20.948 19.7122 22.0062 19.4365 23.406C19.2408 24.4768 19.0073 25.5404 18.7365 26.5947M24.8077 31.8593C24.8485 31.9066 24.8997 31.9438 24.9572 31.9681C25.0148 31.9924 25.0771 32.003 25.1395 31.9993H27.7894C27.9251 31.9966 28.0556 31.9472 28.159 31.8593C28.2742 31.7716 28.351 31.6426 28.3732 31.4995L29.2117 27.5801H31.9078C33.6086 27.5801 34.9399 26.7543 35.9156 26.0208C36.903 25.2873 37.559 24.1539 37.8838 22.6207C37.9613 22.2605 38 21.9138 38 21.5807C38 20.4216 37.5581 19.5351 36.6743 18.9211C35.8036 18.307 34.6473 18 33.2055 18H28.0218C27.8857 18.0023 27.7545 18.0518 27.6508 18.14C27.5356 18.2277 27.4588 18.3566 27.4367 18.4997L24.7489 31.4981C24.7211 31.621 24.7417 31.7498 24.8063 31.8579M34.2764 22.5787C34.0342 23.6495 33.1005 24.6308 32.0044 24.6308H29.7632L30.5359 20.9466H32.8737C33.6702 20.9466 34.3352 21.1033 34.3352 21.9796C34.3352 22.1532 34.3156 22.3529 34.2764 22.5787Z" fill="black"/>
<defs>
<linearGradient id="paint0_linear_3331_1291" x1="0" y1="0" x2="50.4462" y2="2.72566" gradientUnits="userSpaceOnUse">
<stop stop-color="white"/>
<stop offset="1" stop-color="#FFC4B7"/>
</linearGradient>
</defs>
</svg>
