<svg width="48" height="48" viewBox="0 0 48 48" fill="none" xmlns="http://www.w3.org/2000/svg">
<rect width="48" height="48" rx="24" fill="url(#paint0_linear_3331_1286)"/>
<g clip-path="url(#clip0_3331_1286)">
<path d="M24 10C26.7884 10 29.0494 11.3148 29.0494 12.9365C29.0494 14.5582 26.7884 15.873 24 15.873C21.2117 15.873 18.9507 14.5582 18.9507 12.9365C18.9507 11.3148 21.2117 10 24 10ZM24 32.127C26.7884 32.127 29.0494 33.4418 29.0494 35.0635C29.0494 36.6852 26.7884 38 24 38C21.2117 38 18.9507 36.6852 18.9507 35.0635C18.9507 33.4418 21.2117 32.127 24 32.127ZM11.8737 17C13.2667 14.585 15.5382 13.2853 16.944 14.0962C18.3499 14.907 18.358 17.5227 16.9639 19.9377C15.5697 22.3527 13.2994 23.65 11.8947 22.8415C10.49 22.033 10.4795 19.415 11.8737 17ZM31.0385 28.0635C32.4385 25.6485 34.7007 24.3488 36.1054 25.1597C37.51 25.9705 37.5182 28.585 36.124 31C34.7299 33.415 32.4607 34.7158 31.056 33.905C29.6514 33.0942 29.6432 30.4785 31.0385 28.0635ZM11.8947 25.1585C13.3005 24.3418 15.5697 25.6473 16.965 28.0623C18.3604 30.4773 18.3499 33.0918 16.944 33.9038C15.5382 34.7158 13.2667 33.415 11.8749 31C10.483 28.585 10.49 25.9705 11.8947 25.1585ZM31.0572 14.0973C32.4572 13.2865 34.731 14.5862 36.1252 17.0012C37.5194 19.4162 37.5112 22.0307 36.1065 22.8427C34.7019 23.6547 32.4339 22.3527 31.0397 19.9377C29.6455 17.5227 29.6537 14.9082 31.0572 14.0973Z" fill="black"/>
</g>
<defs>
<linearGradient id="paint0_linear_3331_1286" x1="0" y1="0" x2="50.4462" y2="2.72566" gradientUnits="userSpaceOnUse">
<stop stop-color="white"/>
<stop offset="1" stop-color="#FFC4B7"/>
</linearGradient>
<clipPath id="clip0_3331_1286">
<rect width="28" height="28" fill="white" transform="translate(10 10)"/>
</clipPath>
</defs>
</svg>
