<svg width="48" height="48" viewBox="0 0 48 48" fill="none" xmlns="http://www.w3.org/2000/svg">
<rect width="48" height="48" rx="24" fill="url(#paint0_linear_3331_1296)"/>
<path d="M32.3125 18.6882C32.1664 18.8204 31.9775 18.8954 31.7805 18.8993H13.0847C12.422 18.8993 12.086 18.141 12.5457 17.6965L15.6152 14.7355C15.7583 14.5978 15.9485 14.5198 16.1472 14.5173H34.9153C35.5862 14.5173 35.9152 15.2827 35.4485 15.7272L32.3125 18.6882ZM32.3125 33.2785C32.1666 33.4101 31.977 33.4828 31.7805 33.4827H13.0847C12.422 33.4827 12.086 32.7313 12.5457 32.2868L15.6152 29.3188C15.759 29.1831 15.9494 29.1079 16.1472 29.1088H34.9153C35.5862 29.1088 35.9152 29.8672 35.4485 30.3105L32.3125 33.2785ZM32.3125 22.0202C32.1666 21.8886 31.977 21.8158 31.7805 21.816H13.0847C12.422 21.816 12.086 22.5673 12.5457 23.0118L15.6152 25.9798C15.7612 26.1121 15.9502 26.1871 16.1472 26.191H34.9153C35.5862 26.191 35.9152 25.4327 35.4485 24.9882L32.3125 22.0202Z" fill="black"/>
<defs>
<linearGradient id="paint0_linear_3331_1296" x1="0" y1="0" x2="50.4462" y2="2.72566" gradientUnits="userSpaceOnUse">
<stop stop-color="white"/>
<stop offset="1" stop-color="#FFC4B7"/>
</linearGradient>
</defs>
</svg>
