<svg width="48" height="48" viewBox="0 0 48 48" fill="none" xmlns="http://www.w3.org/2000/svg">
<rect width="48" height="48" rx="24" fill="url(#paint0_linear_3331_1301)"/>
<path d="M29.7704 25.0944C30.6754 25.4059 32.8754 26.2494 33.9484 27.4084C35.4324 29.0109 35.6879 33.9204 35.7154 34.5684M12.0449 34.5684C12.1964 33.9799 13.7479 28.0314 14.7854 26.8294C15.7544 25.7064 20.2479 23.8794 20.2479 23.8794L21.0109 23.9699M28.9764 31.8519L28.5919 34.5684M21.4294 34.5684L21.1634 31.7809M16.1579 34.5684V29.6629M32.7529 34.5684V30.1079M28.0574 29.6629L29.5124 29.9664L29.4114 25.4019" stroke="black" stroke-linecap="round" stroke-linejoin="round"/>
<path d="M21.5701 29.6631L20.3506 30.0781L20.8281 23.4341M25.8416 27.2936C25.8416 27.2936 26.4986 27.6711 26.4986 28.4476C26.4986 29.2241 25.7976 30.0706 25.7976 30.0706L26.7226 34.5686M23.4731 34.5686L24.2851 30.0781C24.2851 30.0781 23.7101 29.1881 23.7101 28.4361C23.7101 27.6841 24.4651 27.2026 24.4651 27.2026M31.1771 16.2881C31.3536 18.0691 31.5296 20.4891 31.2346 20.6801L30.6606 21.0551" stroke="black" stroke-linecap="round" stroke-linejoin="round"/>
<path d="M29.4602 16.4834C29.9014 17.435 30.1511 18.464 30.1952 19.5119C30.2605 20.5843 30.2354 21.6602 30.1202 22.7284C30.069 23.4542 29.8714 24.1622 29.5393 24.8096C29.2072 25.457 28.7474 26.0305 28.1877 26.4954C27.2929 27.0862 26.229 27.3673 25.1592 27.2954C23.1197 27.2739 21.0697 24.9954 20.3982 22.0689C20.2832 21.5659 19.7402 21.6684 19.3482 20.9974C18.9965 20.2981 18.8472 19.5145 18.9172 18.7349" stroke="black" stroke-linecap="round" stroke-linejoin="round"/>
<path d="M27.5996 20.218C28.1519 20.218 28.5996 19.7703 28.5996 19.218C28.5996 18.6657 28.1519 18.218 27.5996 18.218C27.0473 18.218 26.5996 18.6657 26.5996 19.218C26.5996 19.7703 27.0473 20.218 27.5996 20.218Z" fill="black"/>
<path d="M23.5742 20.218C24.1265 20.218 24.5742 19.7703 24.5742 19.218C24.5742 18.6657 24.1265 18.218 23.5742 18.218C23.0219 18.218 22.5742 18.6657 22.5742 19.218C22.5742 19.7703 23.0219 20.218 23.5742 20.218Z" fill="black"/>
<path d="M31.0172 13.7785C29.5027 13.1435 27.7802 11.8685 25.7272 11.3615C24.3027 11.0115 22.7247 10.956 21.2377 11.995C19.9787 12.872 18.6232 16.04 18.9177 18.7345C18.9177 18.7345 19.3912 17.349 20.3627 18.589L20.6627 19.9515C20.5823 19.4388 20.544 18.9204 20.5482 18.4015C20.6172 17.994 20.7417 17.9665 21.1282 17.129C21.6892 15.9135 21.6072 15.304 21.2847 14.995C21.3847 15.021 21.4727 15.045 21.5397 15.068C23.0247 15.555 23.3752 15.789 23.8047 15.935C25.3487 16.4585 29.3612 16.7885 31.1252 16.0735C32.4452 15.5395 33.1107 13.6465 33.1107 13.6465C32.7922 13.8188 32.4399 13.9199 32.0785 13.9426C31.717 13.9654 31.3549 13.9094 31.0172 13.7785Z" fill="black" stroke="black" stroke-miterlimit="10" stroke-linecap="round" stroke-linejoin="round"/>
<defs>
<linearGradient id="paint0_linear_3331_1301" x1="0" y1="0" x2="50.4462" y2="2.72566" gradientUnits="userSpaceOnUse">
<stop stop-color="white"/>
<stop offset="1" stop-color="#FFC4B7"/>
</linearGradient>
</defs>
</svg>
