<svg width="48" height="48" viewBox="0 0 48 48" fill="none" xmlns="http://www.w3.org/2000/svg">
<rect width="48" height="48" rx="24" fill="white"/>
<rect width="48" height="48" rx="24" fill="url(#paint0_linear_5001_735)"/>
<path fill-rule="evenodd" clip-rule="evenodd" d="M20.1429 37.6751C20.1429 38.1501 19.7572 38.4001 19.2943 38.2751C16.1821 37.3073 13.4667 35.403 11.5401 32.8373C9.61345 30.2715 8.5752 27.1769 8.5752 24.0001C8.5752 20.8234 9.61345 17.7288 11.5401 15.163C13.4667 12.5972 16.1821 10.693 19.2943 9.72512C19.7572 9.57512 20.1429 9.85012 20.1429 10.3251V11.4751C20.1429 11.8001 19.8858 12.1501 19.5772 12.2501C14.6657 14.0001 11.1429 18.6001 11.1429 23.9751C11.1429 29.3501 14.6657 33.9501 19.5772 35.7001C19.8858 35.8001 20.1429 36.1751 20.1429 36.4751V37.6501V37.6751Z" fill="black"/>
<path fill-rule="evenodd" clip-rule="evenodd" d="M25.2862 33.3751C25.2862 33.7251 25.0033 34.0001 24.6433 34.0001H23.3576C22.9976 34.0001 22.7147 33.7251 22.7147 33.3751V31.4001C19.9119 31.0251 18.549 29.5001 18.1633 27.4251C18.0862 27.0751 18.3947 26.7501 18.7547 26.7501H20.2204C20.529 26.7501 20.7862 26.9501 20.8376 27.2501C21.1204 28.5001 21.8404 29.4251 24.1033 29.4251C25.7747 29.4251 26.9319 28.5251 26.9319 27.1751C26.9319 25.8251 26.2376 25.3251 23.7947 24.9251C20.1947 24.4501 18.4976 23.4001 18.4976 20.6501C18.4976 18.5251 20.1433 16.9001 22.689 16.5251V14.6001C22.689 14.2501 22.9719 13.9751 23.3319 13.9751H24.6176C24.9776 13.9751 25.2604 14.2501 25.2604 14.6001V16.6001C27.3433 16.9501 28.6547 18.1001 29.0662 20.0001C29.1433 20.3501 28.8604 20.7001 28.4747 20.7001H27.1119C26.829 20.7001 26.5719 20.5001 26.4947 20.2501C26.1347 19.0501 25.2347 18.5251 23.7176 18.5251C22.0204 18.5251 21.1462 19.3251 21.1462 20.4501C21.1462 21.6251 21.6347 22.2251 24.2576 22.6001C27.7804 23.0751 29.6062 24.0501 29.6062 26.9751C29.6062 29.2001 27.909 31.0001 25.2604 31.4001V33.3751H25.2862Z" fill="black"/>
<path fill-rule="evenodd" clip-rule="evenodd" d="M28.706 38.2749C28.2431 38.4249 27.8574 38.1499 27.8574 37.6749V36.5249C27.8574 36.1749 28.0631 35.8499 28.4231 35.7499C33.3346 33.9999 36.8574 29.3999 36.8574 24.0249C36.8574 18.6499 33.3346 14.0499 28.4231 12.2999C28.2639 12.2349 28.1265 12.1279 28.0265 11.9909C27.9265 11.854 27.868 11.6926 27.8574 11.5249V10.3749C27.8574 9.89992 28.2431 9.62492 28.706 9.77492C34.9289 11.6999 39.4289 17.3749 39.4289 24.0499C39.4289 30.7249 34.9289 36.3749 28.706 38.3249V38.2749Z" fill="black"/>
<defs>
<linearGradient id="paint0_linear_5001_735" x1="0" y1="0" x2="50.4462" y2="2.72566" gradientUnits="userSpaceOnUse">
<stop stop-color="white"/>
<stop offset="1" stop-color="#FFC4B7"/>
</linearGradient>
</defs>
</svg>
