<svg width="48" height="48" viewBox="0 0 48 48" fill="none" xmlns="http://www.w3.org/2000/svg">
<rect width="48" height="48" rx="24" fill="white"/>
<rect width="48" height="48" rx="24" fill="url(#paint0_linear_5001_1067)"/>
<path fill-rule="evenodd" clip-rule="evenodd" d="M26.3902 25.9067V25.9042C26.2528 25.9142 25.5447 25.9567 23.9647 25.9567C22.7032 25.9567 21.8152 25.9192 21.5029 25.9042V25.908C16.6468 25.6944 13.0222 24.8488 13.0222 23.8371C13.0222 22.8267 16.6468 21.9811 21.5029 21.7638V25.0661C21.8201 25.0886 22.7294 25.1423 23.9859 25.1423C25.4934 25.1423 26.2491 25.0799 26.3902 25.0674V21.7663C31.2363 21.9824 34.8522 22.8279 34.8522 23.8371C34.8522 24.8488 31.2363 25.6919 26.3902 25.9067ZM26.3902 21.4228V18.4677H33.1523V13.9613H14.7408V18.4677H21.5029V21.4216C16.0073 21.6739 11.8744 22.763 11.8744 24.0669C11.8744 25.3709 16.0073 26.4588 21.5029 26.7123V36.1822H26.3902V26.7098C31.8771 26.4575 36 25.3696 36 24.0669C36 22.7642 31.8771 21.6764 26.3902 21.4228Z" fill="black"/>
<defs>
<linearGradient id="paint0_linear_5001_1067" x1="0" y1="0" x2="50.4462" y2="2.72566" gradientUnits="userSpaceOnUse">
<stop stop-color="white"/>
<stop offset="1" stop-color="#FFC4B7"/>
</linearGradient>
</defs>
</svg>
