<svg width="48" height="48" viewBox="0 0 48 48" fill="none" xmlns="http://www.w3.org/2000/svg">
<rect width="48" height="48" rx="24" fill="url(#paint0_linear_5001_714)"/>
<path d="M37.0373 13.3333H33.2546L27.268 19.1613C26.3915 20.0092 25.2194 20.4826 24 20.4813C22.7801 20.4829 21.6075 20.0095 20.7306 19.1613L14.7493 13.3333H10.9626L18.84 21.0053C21.6933 23.7826 26.316 23.7826 29.1666 21.0053L37.0373 13.3333ZM10.964 34.6666H14.7333L20.744 28.82C21.6173 27.9747 22.7859 27.5036 24.0013 27.5066C25.22 27.5066 26.3906 27.9786 27.2586 28.82L33.2693 34.6666H37.0373L29.144 26.9853C26.3013 24.2213 21.6973 24.2213 18.8573 26.9853L10.964 34.6666Z" fill="black"/>
<defs>
<linearGradient id="paint0_linear_5001_714" x1="0" y1="0" x2="50.4462" y2="2.72566" gradientUnits="userSpaceOnUse">
<stop stop-color="white"/>
<stop offset="1" stop-color="#FFC4B7"/>
</linearGradient>
</defs>
</svg>
