<svg width="204" height="30" viewBox="0 0 204 30" fill="none" xmlns="http://www.w3.org/2000/svg">
<path d="M20.9434 1.61853H0.291016V6.40315H20.9434V1.61853Z" fill="white"/>
<path d="M20.9434 12.6085H0.291016V17.3931H20.9434V12.6085Z" fill="white"/>
<path d="M20.9434 23.5968H0.291016V28.3815H20.9434V23.5968Z" fill="white"/>
<path d="M79.878 1.61853H59.2256V6.40315H79.878V1.61853Z" fill="white"/>
<path d="M79.878 12.6085H59.2256V17.3931H79.878V12.6085Z" fill="white"/>
<path d="M79.878 23.5968H59.2256V28.3815H79.878V23.5968Z" fill="white"/>
<path d="M203.591 23.5968V28.3814H186.594V1.61853H191.297V23.5968H203.591Z" fill="white"/>
<path d="M110.845 28.3814H104.957L96.8162 17.3915H89.04V12.6069H101.27C102.951 12.6069 104.319 11.2166 104.319 9.50427C104.319 7.79189 102.951 6.40315 101.27 6.40315H89.04V1.61853H101.27C105.544 1.61853 109.022 5.15572 109.022 9.50427C109.022 13.3864 106.249 16.6212 102.615 17.27L110.844 28.3814H110.845Z" fill="white"/>
<path d="M178.524 28.3814H173.338L163.485 6.88633L153.634 28.3814H148.446L160.71 1.61853H166.26L178.524 28.3814Z" fill="white"/>
<path d="M50.4873 1.61853V6.40315H42.5125V28.3814H37.8098V6.40315H29.8364V1.61853H50.4873Z" fill="white"/>
<path d="M140.334 1.61853V28.3814H135.453L115.633 1.61853H121.52L135.633 20.6735V1.61853H140.334Z" fill="white"/>
</svg>
