<svg width="48" height="48" viewBox="0 0 48 48" fill="none" xmlns="http://www.w3.org/2000/svg">
<rect width="48" height="48" rx="24" fill="url(#paint0_linear_5001_725)"/>
<path d="M21.8581 17.2471C22.358 16.6757 22.1614 15.8277 22.1614 15.8277L20.7081 17.9249C20.6862 17.9249 21.2297 17.9454 21.8581 17.2471ZM16.9049 28.6163L17.0796 27.7832C17.0796 27.7832 16.3577 28.9901 16.2922 29.1569C16.2267 29.3443 16.3359 29.6769 16.6198 29.6563C16.9049 29.6358 17.2543 29.2403 17.2543 28.9478C17.2543 28.5741 16.9049 28.6163 16.9049 28.6163Z" fill="black"/>
<path d="M29.9563 15.2174C29.9563 15.2174 31.0579 15.2597 32.2031 15.3854C29.6263 13.4494 27.1806 12.8814 25.1984 12.8814C22.4676 12.8814 20.6175 13.9545 20.5071 14.0174L21.366 12.7134C21.366 12.7134 17.9292 12.3968 16.7185 15.87C16.4091 15.1328 16.124 14.0597 16.124 14.0597C16.124 14.0597 14.3395 15.5546 15.1766 18.0369C13.1276 17.3226 10.1978 16.334 10.0874 16.3123C9.93334 16.2917 9.88966 16.3546 9.88966 16.3546C9.88966 16.3546 9.84478 16.4186 9.97701 16.5237C10.2196 16.7123 14.8454 19.9752 15.8583 20.606C15.6388 21.3637 15.6388 21.7214 15.8583 22.0803C16.1677 22.5637 16.1895 22.8163 16.1459 23.174C16.101 23.5317 15.7043 26.6255 15.6169 27.0049C15.5284 27.3832 14.604 28.7306 14.6464 29.1306C14.6913 29.5306 15.2651 31.2346 15.771 31.4244C16.1459 31.5501 17.0703 31.8244 17.6878 31.8244C17.9074 31.8244 18.1063 31.7821 18.1937 31.6986C18.5685 31.3821 18.6789 31.3192 18.9434 31.3192H19.0089C19.1181 31.3192 19.2515 31.3398 19.4056 31.3398C19.7574 31.3398 20.2208 31.2769 20.5508 30.9821C21.0361 30.5192 21.8731 29.8872 22.1364 29.5935C22.4676 29.1935 22.6435 28.6449 22.5549 28.0986C22.4894 27.5935 22.7757 27.1512 23.1057 26.71C23.5242 26.1843 24.2946 25.2358 24.2946 25.2358C25.8159 26.3306 26.7621 27.9935 26.7621 29.8461C26.7621 33.1284 23.7668 35.781 20.0655 35.781C19.5014 35.7811 18.9394 35.7174 18.3914 35.5912C20.0886 36.1592 21.5201 36.349 22.6871 36.349C25.1765 36.349 26.4989 35.4861 26.4989 35.4861C26.4989 35.4861 26.0354 36.0541 25.2857 36.7067H25.31C29.4286 36.1592 31.4327 32.9181 31.4327 32.9181C31.4327 32.9181 31.2787 33.9707 31.0809 34.6861C36.5643 30.7501 35.6399 25.8255 35.6181 25.6575C35.6618 25.7203 36.2125 26.3523 36.4988 26.6883C37.3796 18.0174 29.9563 15.2174 29.9563 15.2174ZM21.5201 29.0655C21.4315 29.1706 21.0579 29.4872 20.7922 29.7181C20.529 29.9501 20.2427 30.1809 20.0219 30.3923C19.9345 30.4758 19.7574 30.5181 19.4929 30.5181H18.833C19.163 30.0975 20.1323 29.1283 20.4622 28.9181C20.8589 28.6666 21.0567 28.4129 20.814 27.9718C20.5726 27.5295 19.9345 27.6346 19.9345 27.6346C19.9345 27.6346 20.3082 27.4872 20.6381 27.4872C20.2208 27.382 19.6919 27.4872 19.4493 27.7192C19.1848 27.95 19.2297 28.7706 19.1193 29.2963C19.0089 29.8449 18.634 30.1181 18.0614 30.6232C17.7533 30.8975 17.5325 30.9809 17.3578 30.9809C16.976 30.917 16.6 30.8253 16.2332 30.7066C16.0136 30.4335 15.6824 29.5295 15.5951 29.1501C15.6606 28.9398 15.9251 28.4975 16.0561 28.2449C16.3218 27.7603 16.4758 27.4872 16.5195 27.2346C16.6081 26.8769 16.8944 24.6666 17.0048 23.7409C17.2911 24.0986 17.6878 24.6883 17.5992 25.0666C18.2385 24.2037 17.7751 23.3626 17.5555 23.0255C17.3566 22.6883 17.0921 22.0152 17.3129 21.2997C17.5325 20.5843 18.3259 18.606 18.3259 18.606C18.3259 18.606 18.5904 19.0483 18.9652 18.9637C19.3389 18.8791 22.3572 14.5443 22.3572 14.5443C22.3572 14.5443 23.1724 16.2483 22.3135 17.4906C21.4315 18.7317 20.5726 18.9637 20.5726 18.9637C20.5726 18.9637 21.7846 19.174 22.9079 18.3957C23.3702 19.4266 23.8105 20.4997 23.8336 20.6472C23.7668 20.7946 22.8861 22.8152 22.7975 22.9409C22.7539 22.9832 22.4457 23.0666 22.2249 23.11C21.8501 23.2152 21.6305 23.278 21.5419 23.3409C21.3879 23.4666 20.683 25.3192 20.3531 26.2243C19.9071 26.3325 19.5213 26.5959 19.2734 26.9615C19.4274 26.8563 19.9115 26.7923 20.2645 26.7512C20.5726 26.7295 21.5201 27.214 21.7627 28.1192V28.1603C21.8064 28.4975 21.696 28.8129 21.5201 29.0655ZM19.4493 29.3181C19.6482 29.0438 19.6252 28.5821 19.6482 28.4346C19.6701 28.2861 19.7137 28.0129 19.8908 27.9718C20.0668 27.9295 20.4853 27.9923 20.4853 28.2872C20.4853 28.5615 20.1759 28.6243 19.9564 28.8129C19.8023 28.9615 19.4929 29.2758 19.4493 29.3181ZM28.2385 25.2986C28.4593 24.2243 28.4811 23.2986 28.4144 22.5409C29.2752 23.653 29.8073 24.9603 29.9563 26.3295C29.9782 26.4986 30.1553 26.6666 30.3312 26.8346C30.4853 26.9603 30.6612 27.1295 30.6612 27.2346C30.6612 27.7192 30.6175 28.2026 30.5289 28.6861C30.5071 28.7501 30.3094 28.8552 30.1553 28.9398C29.9345 29.0449 29.7367 29.1501 29.6919 29.3181C29.2083 30.9297 28.1897 32.3531 26.7852 33.3798C28.833 31.3386 29.8241 27.9718 28.2385 25.2986ZM26.8507 33.5695C28.2822 32.5181 29.3837 31.0438 29.869 29.3809C29.8908 29.3181 30.0886 29.2129 30.2208 29.1295C30.4416 29.0232 30.6612 28.8975 30.7061 28.7295C30.7934 28.2449 30.8383 27.7398 30.8383 27.2346C30.8383 27.0449 30.6393 26.8563 30.4416 26.6666C30.3312 26.5409 30.1553 26.3923 30.1553 26.2872C29.9764 24.7605 29.3506 23.3107 28.3477 22.0997C27.9085 19.574 26.1458 18.7957 26.1022 18.774C26.1458 18.8369 27.291 20.4163 26.4989 22.2677C25.6836 24.142 23.5909 23.846 23.415 23.8677C23.2379 23.8677 22.5549 24.7089 21.696 26.2666C21.3391 26.1649 20.9618 26.1433 20.5945 26.2038C20.9912 25.1512 21.5856 23.6575 21.696 23.5306C21.7409 23.4883 22.0709 23.4049 22.2904 23.3409C22.709 23.2357 22.9079 23.1729 22.9735 23.0895C23.0183 23.0255 23.2379 22.5409 23.4587 22.0369C23.6565 22.0369 24.1623 21.9946 24.2072 21.9729C24.2521 21.9306 24.6706 20.8997 24.6706 20.7729C24.6706 20.6689 23.8105 18.6266 23.4805 17.8471C23.6508 17.6554 23.8053 17.4518 23.9428 17.238C28.4593 17.7009 31.9835 21.3637 31.9835 25.8038C31.9868 27.4212 31.5075 29.007 30.6001 30.3801C29.6928 31.7532 28.394 32.8584 26.8519 33.5695H26.8507Z" fill="black"/>
<path d="M21.0133 22.2323C21.4295 21.7706 21.2099 20.91 20.4432 20.7638C20.6397 20.3226 20.9248 19.4415 20.9248 19.4415C20.9248 19.4415 18.6865 22.7981 18.4888 22.8621C18.291 22.9249 18.0945 22.1901 18.0945 22.1901C17.6772 23.7215 18.7969 23.9318 18.9279 23.4495C19.543 23.3021 20.596 22.6723 21.0133 22.2323Z" fill="black"/>
<defs>
<linearGradient id="paint0_linear_5001_725" x1="0" y1="0" x2="50.4462" y2="2.72566" gradientUnits="userSpaceOnUse">
<stop stop-color="white"/>
<stop offset="1" stop-color="#FFC4B7"/>
</linearGradient>
</defs>
</svg>
